<svg width="1376" height="253" viewBox="0 0 1376 253" fill="none" xmlns="http://www.w3.org/2000/svg">
<path d="M1179.06 204.691V164.015L1281.05 3.33997H1316.12V59.642H1295.36L1231.07 161.391V163.3H1376V204.691H1179.06ZM1296.32 247.634V192.286L1297.27 174.274V3.33997H1345.7V247.634H1296.32Z" fill="black"/>
<path d="M1068.28 253.001C1047.76 252.922 1030.11 247.872 1015.32 237.852C1000.6 227.832 989.272 213.319 981.32 194.314C973.447 175.308 969.551 152.445 969.63 125.725C969.63 99.0852 973.566 76.3815 981.439 57.6141C989.391 38.8468 1000.72 24.5725 1015.44 14.7912C1030.23 4.93041 1047.84 0 1068.28 0C1088.72 0 1106.29 4.93041 1121 14.7912C1135.79 24.652 1147.16 38.9661 1155.12 57.7334C1163.07 76.4213 1167.01 99.0852 1166.93 125.725C1166.93 152.524 1162.95 175.427 1155 194.433C1147.12 213.439 1135.83 227.952 1121.12 237.972C1106.41 247.991 1088.79 253.001 1068.28 253.001ZM1068.28 210.178C1082.27 210.178 1093.45 203.141 1101.8 189.065C1110.15 174.99 1114.28 153.876 1114.2 125.725C1114.2 107.197 1112.29 91.7691 1108.48 79.4431C1104.74 67.1171 1099.41 57.8527 1092.49 51.6499C1085.65 45.4472 1077.58 42.3458 1068.28 42.3458C1054.36 42.3458 1043.23 49.304 1034.88 63.2205C1026.53 77.137 1022.31 97.9719 1022.23 125.725C1022.23 144.493 1024.1 160.159 1027.84 172.723C1031.66 185.208 1037.03 194.592 1043.94 200.874C1050.86 207.077 1058.97 210.178 1068.28 210.178Z" fill="black"/>
<path d="M762.137 204.691V164.015L864.125 3.33997H899.194V59.642H878.439L814.145 161.391V163.3H959.075V204.691H762.137ZM879.393 247.634V192.286L880.347 174.274V3.33997H928.776V247.634H879.393Z" fill="black"/>
<path d="M593.109 247.634V64.4134H642.374V96.3815H644.282C647.622 85.0098 653.228 76.4213 661.101 70.6162C668.974 64.7315 678.04 61.7892 688.298 61.7892C690.843 61.7892 693.586 61.9482 696.529 62.2663C699.471 62.5844 702.055 63.0218 704.282 63.5784V108.668C701.896 107.952 698.596 107.316 694.381 106.759C690.167 106.203 686.31 105.924 682.811 105.924C675.336 105.924 668.656 107.554 662.771 110.815C656.966 113.996 652.354 118.449 648.934 124.175C645.594 129.9 643.924 136.501 643.924 143.976V247.634H593.109Z" fill="black"/>
<path d="M490.886 251.212C472.357 251.212 456.333 247.276 442.814 239.403C429.375 231.451 418.997 220.397 411.681 206.242C404.365 192.007 400.707 175.507 400.707 156.739C400.707 137.813 404.365 121.272 411.681 107.117C418.997 92.8825 429.375 81.8288 442.814 73.9561C456.333 66.0038 472.357 62.0277 490.886 62.0277C509.414 62.0277 525.399 66.0038 538.838 73.9561C552.357 81.8288 562.774 92.8825 570.09 107.117C577.406 121.272 581.064 137.813 581.064 156.739C581.064 175.507 577.406 192.007 570.09 206.242C562.774 220.397 552.357 231.451 538.838 239.403C525.399 247.276 509.414 251.212 490.886 251.212ZM491.124 211.848C499.554 211.848 506.591 209.463 512.238 204.691C517.884 199.84 522.138 193.24 525.001 184.89C527.943 176.54 529.414 167.037 529.414 156.381C529.414 145.725 527.943 136.222 525.001 127.872C522.138 119.523 517.884 112.922 512.238 108.071C506.591 103.22 499.554 100.795 491.124 100.795C482.615 100.795 475.458 103.22 469.653 108.071C463.928 112.922 459.594 119.523 456.651 127.872C453.788 136.222 452.357 145.725 452.357 156.381C452.357 167.037 453.788 176.54 456.651 184.89C459.594 193.24 463.928 199.84 469.653 204.691C475.458 209.463 482.615 211.848 491.124 211.848Z" fill="black"/>
<path d="M300.176 247.634V64.4134H349.44V96.3815H351.349C354.689 85.0098 360.295 76.4213 368.168 70.6162C376.04 64.7315 385.106 61.7892 395.364 61.7892C397.909 61.7892 400.653 61.9482 403.595 62.2663C406.537 62.5844 409.122 63.0218 411.348 63.5784V108.668C408.963 107.952 405.663 107.316 401.448 106.759C397.233 106.203 393.376 105.924 389.877 105.924C382.402 105.924 375.722 107.554 369.838 110.815C364.032 113.996 359.42 118.449 356.001 124.175C352.661 129.9 350.991 136.501 350.991 143.976V247.634H300.176Z" fill="black"/>
<path d="M183.727 247.634V64.4134H232.991V96.3815H234.899C238.239 85.0098 243.846 76.4213 251.718 70.6162C259.591 64.7315 268.657 61.7892 278.915 61.7892C281.46 61.7892 284.203 61.9482 287.146 62.2663C290.088 62.5844 292.673 63.0218 294.899 63.5784V108.668C292.514 107.952 289.213 107.316 284.999 106.759C280.784 106.203 276.927 105.924 273.428 105.924C265.953 105.924 259.273 107.554 253.388 110.815C247.583 113.996 242.971 118.449 239.551 124.175C236.212 129.9 234.542 136.501 234.542 143.976V247.634H183.727Z" fill="black"/>
<path d="M0 247.634V3.33997H164.612V45.9243H51.65V104.135H156.143V146.719H51.65V205.049H165.089V247.634H0Z" fill="black"/>
</svg>
