<svg width="1392" height="274" viewBox="0 0 1392 274" fill="none" xmlns="http://www.w3.org/2000/svg">
<path d="M1387.3 125.221L1336.13 128.302C1334.81 121.899 1331.25 116.402 1325.46 111.811C1319.68 107.1 1311.9 104.744 1302.14 104.744C1293.46 104.744 1286.17 106.556 1280.26 110.18C1274.48 113.805 1271.59 118.637 1271.59 124.678C1271.59 129.51 1273.45 133.678 1277.19 137.182C1281.05 140.564 1287.62 143.222 1296.9 145.155L1333.6 152.404C1353.25 156.391 1367.89 162.854 1377.54 171.794C1387.18 180.734 1392 192.513 1392 207.131C1392 220.541 1388.14 232.26 1380.43 242.287C1372.71 252.194 1362.11 259.986 1348.61 265.664C1335.11 271.222 1319.62 274 1302.14 274C1275.38 274 1254.05 268.383 1238.14 257.147C1222.35 245.912 1213.13 230.689 1210.47 211.48L1265.26 208.581C1267.07 216.796 1271.16 223.018 1277.55 227.246C1283.94 231.475 1292.14 233.589 1302.14 233.589C1311.9 233.589 1319.8 231.656 1325.83 227.79C1331.97 223.924 1335.05 219.031 1335.05 213.111C1335.05 203.084 1326.37 196.319 1309.01 192.815L1274.12 185.566C1254.47 181.58 1239.82 174.754 1230.18 165.089C1220.54 155.424 1215.72 143.041 1215.72 127.939C1215.72 114.892 1219.27 103.656 1226.38 94.2331C1233.5 84.8098 1243.44 77.5612 1256.22 72.4871C1269.11 67.413 1284.18 64.876 1301.42 64.876C1326.97 64.876 1347.04 70.3125 1361.63 81.1855C1376.33 91.9377 1384.89 106.616 1387.3 125.221Z" fill="black"/>
<path d="M1191.31 125.221L1140.14 128.302C1138.82 121.899 1135.26 116.402 1129.47 111.811C1123.69 107.1 1115.91 104.744 1106.15 104.744C1097.47 104.744 1090.18 106.556 1084.27 110.18C1078.49 113.805 1075.6 118.637 1075.6 124.678C1075.6 129.51 1077.46 133.678 1081.2 137.182C1085.06 140.564 1091.63 143.222 1100.91 145.155L1137.61 152.404C1157.26 156.391 1171.9 162.854 1181.55 171.794C1191.19 180.734 1196.01 192.513 1196.01 207.131C1196.01 220.541 1192.15 232.26 1184.44 242.287C1176.72 252.194 1166.12 259.986 1152.62 265.664C1139.12 271.222 1123.63 274 1106.15 274C1079.39 274 1058.06 268.383 1042.15 257.147C1026.36 245.912 1017.14 230.689 1014.48 211.48L1069.27 208.581C1071.08 216.796 1075.17 223.018 1081.56 227.246C1087.95 231.475 1096.15 233.589 1106.15 233.589C1115.91 233.589 1123.81 231.656 1129.84 227.79C1135.98 223.924 1139.06 219.031 1139.06 213.111C1139.06 203.084 1130.38 196.319 1113.02 192.815L1078.13 185.566C1058.48 181.58 1043.83 174.754 1034.19 165.089C1024.55 155.424 1019.73 143.041 1019.73 127.939C1019.73 114.892 1023.28 103.656 1030.39 94.2331C1037.51 84.8098 1047.45 77.5612 1060.23 72.4871C1073.12 67.413 1088.19 64.876 1105.43 64.876C1130.98 64.876 1151.05 70.3125 1165.63 81.1855C1180.34 91.9377 1188.9 106.616 1191.31 125.221Z" fill="black"/>
<path d="M906.906 274C886.174 274 868.275 269.772 853.208 261.315C838.141 252.858 826.57 240.838 818.494 225.253C810.538 209.548 806.561 191.003 806.561 169.619C806.561 148.84 810.538 130.597 818.494 114.892C826.57 99.1864 837.9 86.924 852.485 78.1048C867.19 69.2856 884.426 64.876 904.194 64.876C917.574 64.876 930.049 67.0506 941.62 71.3998C953.192 75.6282 963.317 82.0312 971.995 90.6088C980.674 99.0656 987.424 109.757 992.245 122.684C997.067 135.49 999.477 150.531 999.477 167.807V183.029H828.8V148.417H972.357L946.321 157.478C946.321 147.209 944.754 138.269 941.62 130.658C938.486 123.047 933.786 117.187 927.518 113.08C921.371 108.851 913.717 106.737 904.556 106.737C895.395 106.737 887.621 108.851 881.232 113.08C874.964 117.308 870.143 123.047 866.768 130.295C863.393 137.544 861.706 145.88 861.706 155.303V179.768C861.706 190.761 863.634 200.185 867.491 208.037C871.348 215.769 876.712 221.749 883.583 225.978C890.574 230.085 898.589 232.139 907.63 232.139C913.897 232.139 919.562 231.233 924.625 229.421C929.687 227.609 934.027 224.951 937.643 221.447C941.379 217.944 944.152 213.715 945.96 208.762L997.669 212.205C995.138 224.649 989.834 235.522 981.759 244.824C973.803 254.006 963.498 261.194 950.841 266.389C938.185 271.463 923.54 274 906.906 274Z" fill="black"/>
<path d="M685.062 270.013V67.4126H739.122V102.931H741.291C745.028 90.3667 751.235 80.883 759.914 74.4801C768.592 67.9562 778.537 64.6943 789.746 64.6943C792.639 64.6943 795.653 64.8756 798.786 65.238C802.041 65.4796 804.934 65.9629 807.465 66.6877V116.341C804.813 115.495 801.137 114.831 796.436 114.348C791.856 113.744 787.577 113.442 783.599 113.442C775.523 113.442 768.231 115.254 761.722 118.878C755.213 122.382 750.09 127.335 746.354 133.738C742.738 140.02 740.93 147.269 740.93 155.484V270.013H685.062Z" fill="black"/>
<path d="M660.653 67.4127V109.817H538.973V67.4127H660.653ZM566.636 19.209H622.504V207.675C622.504 214.44 624.01 219.454 627.024 222.716C630.037 225.857 634.859 227.427 641.488 227.427C643.658 227.427 646.068 227.246 648.72 226.884C651.372 226.521 653.662 226.098 655.591 225.615L664.45 267.657C658.303 269.47 652.336 270.799 646.551 271.644C640.885 272.49 635.28 272.913 629.736 272.913C609.606 272.913 594.057 267.899 583.089 257.872C572.12 247.724 566.636 233.468 566.636 215.105V19.209Z" fill="black"/>
<path d="M404.094 270.013V67.4126H458.154V102.931H460.324C464.06 90.3667 470.268 80.883 478.946 74.4801C487.625 67.9562 497.569 64.6943 508.779 64.6943C511.672 64.6943 514.685 64.8756 517.819 65.238C521.073 65.4796 523.966 65.9629 526.497 66.6877V116.341C523.846 115.495 520.169 114.831 515.468 114.348C510.888 113.744 506.609 113.442 502.631 113.442C494.556 113.442 487.263 115.254 480.754 118.878C474.245 122.382 469.123 127.335 465.386 133.738C461.77 140.02 459.962 147.269 459.962 155.484V270.013H404.094Z" fill="black"/>
<path d="M0 270.013V0H178.271V47.1164H56.772V121.234H166.519V167.444H56.772V270.013H0Z" fill="black"/>
<g clip-path="url(#clip0_63_466)">
<path d="M378.727 176.424H343.362C312.469 176.424 287.427 201.467 287.427 232.359V267.725C336.184 264.11 375.112 225.181 378.727 176.424Z" fill="#F24913"/>
<path d="M272.576 267.725V232.359C272.576 201.467 247.533 176.424 216.641 176.424H181.275C184.891 225.181 223.819 264.11 272.576 267.725Z" fill="#F24913"/>
<path d="M378.727 161.574C375.112 112.817 336.184 73.8881 287.427 70.2729V105.639C287.427 136.531 312.469 161.574 343.362 161.574H378.727Z" fill="#F24913"/>
<path d="M272.576 70.2729C223.819 73.8881 184.891 112.817 181.275 161.574H216.641C247.533 161.574 272.576 136.531 272.576 105.639V70.2729Z" fill="#F24913"/>
</g>
<defs>
<clipPath id="clip0_63_466">
<rect width="198" height="198" fill="white" transform="translate(181 70)"/>
</clipPath>
</defs>
</svg>
