<svg width="24" height="24" viewBox="0 0 24 24" fill="none" xmlns="http://www.w3.org/2000/svg">
<path fill-rule="evenodd" clip-rule="evenodd" d="M21.3332 0H2.66677C1.19446 0 0 1.19354 0 2.66677V21.3332C0 22.8055 1.19354 24 2.66677 24H21.3332C22.8055 24 24 22.8065 24 21.3332V2.66677C24 1.19446 22.8065 0 21.3332 0ZM7.25631 20.6668H3.67754V9.11077H7.25631V20.6668ZM5.44985 7.59785C4.28031 7.59785 3.33323 6.64338 3.33323 5.46554C3.33323 4.28769 4.28031 3.33323 5.44985 3.33323C6.61938 3.33323 7.56554 4.28769 7.56554 5.46554C7.56554 6.64338 6.61846 7.59785 5.44985 7.59785ZM20.6668 20.6668H17.1055V14.6012C17.1055 12.9378 16.4732 12.0083 15.1569 12.0083C13.7252 12.0083 12.9766 12.9757 12.9766 14.6012V20.6668H9.54462V9.11077H12.9766V10.6671C12.9766 10.6671 14.0086 8.75723 16.4612 8.75723C18.9138 8.75723 20.6668 10.2535 20.6668 13.3495V20.6668Z" fill="white"/>
</svg>
