<svg width="20" height="20" viewBox="0 0 20 20" fill="none" xmlns="http://www.w3.org/2000/svg">
<g clip-path="url(#clip0_21_307)">
<path d="M19.9725 10.75H16.4002C13.2798 10.75 10.7502 13.2796 10.7502 16.4V19.9723C15.6752 19.6071 19.6073 15.675 19.9725 10.75Z" fill="#F24913"/>
<path d="M9.25015 19.9723V16.4C9.25015 13.2796 6.72055 10.75 3.60013 10.75H0.027832C0.392999 15.675 4.32518 19.6071 9.25015 19.9723Z" fill="#F24913"/>
<path d="M19.9725 9.2499C19.6073 4.32493 15.6752 0.392755 10.7502 0.0275879V3.59988C10.7502 6.7203 13.2798 9.2499 16.4002 9.2499H19.9725Z" fill="#F24913"/>
<path d="M9.25015 0.0275879C4.32518 0.392755 0.392999 4.32493 0.027832 9.2499H3.60013C6.72055 9.2499 9.25015 6.7203 9.25015 3.59988V0.0275879Z" fill="#F24913"/>
</g>
<defs>
<clipPath id="clip0_21_307">
<rect width="20" height="20" fill="white"/>
</clipPath>
</defs>
</svg>
